<svg width="119" height="68" viewBox="0 0 119 68" fill="none" xmlns="http://www.w3.org/2000/svg">
<g clip-path="url(#clip0_179_200)">
<path d="M41.8904 12.5671C41.8904 15.9002 43.2144 19.0967 45.5712 21.4535C47.928 23.8102 51.1245 25.1343 54.4575 25.1343C57.7905 25.1343 60.987 23.8102 63.3438 21.4535C65.7006 19.0967 67.0247 15.9002 67.0247 12.5671C67.0247 9.23413 65.7006 6.03763 63.3438 3.68083C60.987 1.32403 57.7905 0 54.4575 0C51.1245 0 47.928 1.32403 45.5712 3.68083C43.2144 6.03763 41.8904 9.23413 41.8904 12.5671ZM62.8356 12.5671C62.8356 14.7892 61.9529 16.9202 60.3817 18.4914C58.8105 20.0625 56.6795 20.9452 54.4575 20.9452C52.2355 20.9452 50.1045 20.0625 48.5333 18.4914C46.9621 16.9202 46.0794 14.7892 46.0794 12.5671C46.0794 10.3451 46.9621 8.21413 48.5333 6.64293C50.1045 5.07174 52.2355 4.18905 54.4575 4.18905C56.6795 4.18905 58.8105 5.07174 60.3817 6.64293C61.9529 8.21413 62.8356 10.3451 62.8356 12.5671Z" fill="#E31C5F"/>
<path d="M29.3232 25.1338H27.2287C25.1966 25.1336 23.2337 25.8719 21.7055 27.2113C20.1773 28.5506 19.188 30.3998 18.9218 32.4144L5.89389 26.6251C5.2562 26.341 4.55762 26.2207 3.86163 26.2752C3.16564 26.3298 2.49432 26.5574 1.90869 26.9374C1.32306 27.3175 0.841682 27.8378 0.508324 28.4512C0.174973 29.0646 0.000198364 29.7516 -9.91821e-05 30.4497V61.7084C0.000511169 62.4059 0.175316 63.0923 0.508446 63.7052C0.841583 64.3181 1.32249 64.8381 1.90755 65.218C2.4926 65.5979 3.16326 65.8257 3.85867 65.8807C4.55407 65.9357 5.2522 65.8162 5.8897 65.533L18.9218 59.7437C19.188 61.7583 20.1773 63.6074 21.7055 64.9468C23.2337 66.2862 25.1966 67.0245 27.2287 67.0243H58.6466C60.8686 67.0243 62.9996 66.1416 64.5708 64.5704C66.142 62.9992 67.0247 60.8682 67.0247 58.6462V33.5119C67.0247 31.2899 66.142 29.1589 64.5708 27.5877C62.9996 26.0165 60.8686 25.1338 58.6466 25.1338H29.3232ZM4.18895 61.7042V30.4539L18.8506 36.9678V55.1902L4.18895 61.7084V61.7042ZM62.8356 33.5119V58.6462C62.8356 59.7572 62.3943 60.8227 61.6087 61.6083C60.8231 62.3939 59.7576 62.8352 58.6466 62.8352H27.2287C26.1177 62.8352 25.0522 62.3939 24.2666 61.6083C23.481 60.8227 23.0397 59.7572 23.0397 58.6462V33.5119C23.0397 32.4009 23.481 31.3354 24.2666 30.5498C25.0522 29.7642 26.1177 29.3228 27.2287 29.3228H58.6466C59.7576 29.3228 60.8231 29.7642 61.6087 30.5498C62.3943 31.3354 62.8356 32.4009 62.8356 33.5119Z" fill="#E31C5F"/>
<path d="M29.3232 25.1343C25.9902 25.1343 22.7937 23.8102 20.4369 21.4535C18.0801 19.0967 16.7561 15.9002 16.7561 12.5671C16.7561 9.23413 18.0801 6.03763 20.4369 3.68083C22.7937 1.32403 25.9902 0 29.3232 0C32.6563 0 35.8528 1.32403 38.2095 3.68083C40.5663 6.03763 41.8904 9.23413 41.8904 12.5671C41.8904 15.9002 40.5663 19.0967 38.2095 21.4535C35.8528 23.8102 32.6563 25.1343 29.3232 25.1343ZM37.7013 12.5671C37.7013 10.3451 36.8186 8.21413 35.2474 6.64293C33.6762 5.07174 31.5452 4.18905 29.3232 4.18905C27.1012 4.18905 24.9702 5.07174 23.399 6.64293C21.8278 8.21413 20.9451 10.3451 20.9451 12.5671C20.9451 14.7892 21.8278 16.9202 23.399 18.4914C24.9702 20.0625 27.1012 20.9452 29.3232 20.9452C31.5452 20.9452 33.6762 20.0625 35.2474 18.4914C36.8186 16.9202 37.7013 14.7892 37.7013 12.5671Z" fill="#E31C5F"/>
<path d="M40.3415 48.016H42.4536C42.7528 48.016 43.0038 47.9146 43.2066 47.7119C43.4093 47.5091 43.5104 47.2585 43.5097 46.9599C43.5097 46.6607 43.4083 46.4097 43.2055 46.207C43.0028 46.0042 42.7521 45.9032 42.4536 45.9039H40.3415C40.0423 45.9039 39.7913 46.0053 39.5885 46.208C39.3857 46.4108 39.2847 46.6614 39.2854 46.9599C39.2854 47.2592 39.3868 47.5102 39.5896 47.7129C39.7923 47.9157 40.043 48.0167 40.3415 48.016ZM40.3415 44.8478H46.6778C46.9771 44.8478 47.2281 44.7464 47.4308 44.5437C47.6336 44.3409 47.7346 44.0903 47.7339 43.7918C47.7339 43.4925 47.6325 43.2416 47.4298 43.0388C47.227 42.836 46.9764 42.735 46.6778 42.7357H40.3415C40.0423 42.7357 39.7913 42.8371 39.5885 43.0398C39.3857 43.2426 39.2847 43.4932 39.2854 43.7918C39.2854 44.091 39.3868 44.342 39.5896 44.5447C39.7923 44.7475 40.043 44.8485 40.3415 44.8478ZM40.3415 41.6796H46.6778C46.9771 41.6796 47.2281 41.5783 47.4308 41.3755C47.6336 41.1727 47.7346 40.9221 47.7339 40.6236C47.7339 40.3244 47.6325 40.0734 47.4298 39.8706C47.227 39.6678 46.9764 39.5668 46.6778 39.5675H40.3415C40.0423 39.5675 39.7913 39.6689 39.5885 39.8717C39.3857 40.0744 39.2847 40.3251 39.2854 40.6236C39.2854 40.9228 39.3868 41.1738 39.5896 41.3765C39.7923 41.5793 40.043 41.6803 40.3415 41.6796ZM37.1733 52.2403C36.5925 52.2403 36.095 52.0333 35.6811 51.6193C35.2671 51.2053 35.0605 50.7083 35.0612 50.1281V37.4554C35.0612 36.8746 35.2682 36.3771 35.6821 35.9632C36.0961 35.5492 36.5932 35.3426 37.1733 35.3433H49.846C50.4269 35.3433 50.9243 35.5503 51.3383 35.9642C51.7522 36.3782 51.9589 36.8753 51.9582 37.4554V50.1281C51.9582 50.709 51.7512 51.2064 51.3372 51.6203C50.9232 52.0343 50.4262 52.241 49.846 52.2403H37.1733ZM37.1733 50.1281H49.846V37.4554H37.1733V50.1281ZM32.949 56.4645C32.3682 56.4645 31.8708 56.2575 31.4568 55.8435C31.0428 55.4296 30.8362 54.9325 30.8369 54.3524V40.6236C30.8369 40.3244 30.9383 40.0734 31.1411 39.8706C31.3438 39.6678 31.5945 39.5668 31.893 39.5675C32.1922 39.5675 32.4432 39.6689 32.646 39.8717C32.8487 40.0744 32.9497 40.3251 32.949 40.6236V54.3524H46.6778C46.9771 54.3524 47.2281 54.4538 47.4308 54.6565C47.6336 54.8593 47.7346 55.1099 47.7339 55.4084C47.7339 55.7077 47.6325 55.9587 47.4298 56.1614C47.227 56.3642 46.9764 56.4652 46.6778 56.4645H32.949Z" fill="#E31C5F"/>
</g>
<path d="M64.4902 20.5586C64.4902 20.5586 72 24.4543 72 30.6733C72 36.8924 67.0248 39.38 67.0248 39.38" stroke="#E31C5F" stroke-width="2.25293" stroke-linecap="round" stroke-linejoin="round"/>
<path d="M87.6719 37.1812C87.849 37.1812 87.974 37.2801 88.0469 37.478C88.1198 37.6655 88.1562 37.9416 88.1562 38.3062C88.1562 38.5457 88.1146 38.978 88.0312 39.603C87.9479 40.2176 87.8281 41.0249 87.6719 42.0249L87.8594 43.0405C87.776 43.2801 87.6927 43.5614 87.6094 43.8843C87.526 44.2072 87.4531 44.5614 87.3906 44.9468C87.3073 45.3843 87.2292 45.7541 87.1562 46.0562C87.0938 46.3582 87.0312 46.603 86.9688 46.7905C86.8854 47.1134 86.8073 47.4155 86.7344 47.6968C86.6719 47.9676 86.625 48.2384 86.5938 48.5093C86.5208 49.1655 86.4219 49.7905 86.2969 50.3843C86.1823 50.9676 86.026 51.5301 85.8281 52.0718C85.6927 52.4676 85.4844 53.2228 85.2031 54.3374C84.9323 55.452 84.5833 56.9155 84.1562 58.728C83.9688 59.5405 83.7604 60.1499 83.5312 60.5562C83.3021 60.9624 83.0521 61.1655 82.7812 61.1655C82.6458 61.1655 82.5469 61.1343 82.4844 61.0718C82.4219 61.0093 82.3802 60.8999 82.3594 60.7437C82.349 60.6916 82.3438 60.6343 82.3438 60.5718C82.3542 60.5093 82.3594 60.327 82.3594 60.0249C82.349 59.9103 82.3177 59.7957 82.2656 59.6812L82.5781 58.4624C82.5677 58.327 82.5417 58.1812 82.5 58.0249C82.5 57.6603 82.5885 56.9259 82.7656 55.8218C82.9531 54.7072 83.2188 53.2176 83.5625 51.353C83.6875 50.7384 83.8073 50.0666 83.9219 49.3374C83.9219 49.2124 83.9115 49.1239 83.8906 49.0718C83.8698 49.0197 83.8281 48.9937 83.7656 48.9937C83.651 49.0457 83.5312 49.0978 83.4062 49.1499L83.0156 48.9624C82.9531 48.9832 82.8229 49.0822 82.625 49.2593C82.4375 49.4259 82.2969 49.5093 82.2031 49.5093C82.0052 49.5093 81.7135 49.478 81.3281 49.4155C80.9531 49.3426 80.6719 49.3062 80.4844 49.3062C80.2552 49.3062 80.0104 49.3687 79.75 49.4937C79.4896 49.6082 79.2188 49.7853 78.9375 50.0249C78.4479 50.0978 78.0104 50.2176 77.625 50.3843C77.25 50.5405 76.9167 50.7437 76.625 50.9937C76.4792 51.1082 76.3229 51.2332 76.1562 51.3687C76.0729 51.4416 76.0104 51.702 75.9688 52.1499C75.9375 52.5874 75.9219 53.1916 75.9219 53.9624C75.9219 54.6707 75.9583 55.1916 76.0312 55.5249C76.1042 55.8582 76.2135 56.0249 76.3594 56.0249C76.4531 56.0249 76.5365 56.0041 76.6094 55.9624C76.6823 55.9103 76.7708 55.8322 76.875 55.728C76.9375 55.6551 77.0104 55.5822 77.0938 55.5093C77.1771 55.4259 77.2448 55.3426 77.2969 55.2593L77.4219 55.2437C77.4948 55.2332 77.5469 55.2541 77.5781 55.3062C77.6198 55.3582 77.6406 55.4364 77.6406 55.5405C77.5365 55.7697 77.4323 55.978 77.3281 56.1655C77.2344 56.353 77.151 56.5093 77.0781 56.6343C76.7552 57.1239 76.4375 57.6082 76.125 58.0874C75.9375 58.3374 75.7135 58.5301 75.4531 58.6655C75.1927 58.8009 74.8906 58.8687 74.5469 58.8687C74.2656 58.8687 74.0521 58.4884 73.9062 57.728C73.7708 56.9676 73.7031 55.8322 73.7031 54.3218C73.7031 53.7384 73.6667 53.2332 73.5938 52.8062C73.5208 52.3687 73.401 51.9937 73.2344 51.6812C73.0781 51.4103 72.9688 51.1707 72.9062 50.9624C72.8438 50.7541 72.8125 50.577 72.8125 50.4312C72.8125 50.3166 72.8385 50.1864 72.8906 50.0405C72.9531 49.8947 73.0417 49.7489 73.1562 49.603C73.2917 49.4364 73.3958 49.3009 73.4688 49.1968C73.5521 49.0822 73.599 48.9884 73.6094 48.9155C73.6719 48.7489 73.7292 48.5301 73.7812 48.2593C73.8438 47.9884 73.9115 47.6759 73.9844 47.3218C74.0469 47.0822 74.1042 46.7437 74.1562 46.3062C74.2083 45.8687 74.2448 45.3426 74.2656 44.728C74.3177 43.5614 74.4271 42.6759 74.5938 42.0718C74.7604 41.4676 74.8281 41.1082 74.7969 40.9937L74.7031 40.603C74.724 40.3843 74.7552 40.103 74.7969 39.7593C74.8385 39.4155 74.8958 39.0197 74.9688 38.5718C75.0625 38.5093 75.1667 38.4207 75.2812 38.3062C75.3958 38.1812 75.5156 38.0301 75.6406 37.853C76.3594 37.5822 76.75 37.4468 76.8125 37.4468C77.1875 37.4468 77.4688 37.5457 77.6562 37.7437C77.8438 37.9416 77.9375 38.2228 77.9375 38.5874C77.9375 38.6916 77.9062 38.8374 77.8438 39.0249C77.7917 39.2124 77.724 39.4468 77.6406 39.728C77.5469 39.9676 77.4427 40.4103 77.3281 41.0562C77.224 41.702 77.1042 42.5301 76.9688 43.5405C76.875 44.2697 76.7708 44.9572 76.6562 45.603C76.5521 46.2384 76.4271 46.8322 76.2812 47.3843C76.2604 47.4572 76.2448 47.5457 76.2344 47.6499C76.2344 47.8062 76.2604 47.9207 76.3125 47.9937C76.3646 48.0562 76.4427 48.0874 76.5469 48.0874C76.9323 48.0562 77.2812 48.0249 77.5938 47.9937C77.6979 47.9937 78.0573 47.8791 78.6719 47.6499H79.875C80.0417 47.6499 80.2812 47.6343 80.5938 47.603C80.9167 47.5614 81.1562 47.5405 81.3125 47.5405C81.4583 47.5405 81.6771 47.577 81.9688 47.6499C82.2708 47.7124 82.5052 47.7437 82.6719 47.7437C82.7969 47.7437 82.9583 47.7228 83.1562 47.6812C83.3542 47.6395 83.5938 47.5666 83.875 47.4624C84.0104 47.4624 84.125 47.4468 84.2188 47.4155C84.3125 47.3843 84.3594 47.3374 84.3594 47.2749C84.4115 47.1395 84.4688 46.9728 84.5312 46.7749C84.6042 46.577 84.6771 46.3478 84.75 46.0874C84.7708 45.8478 84.7969 45.5614 84.8281 45.228C84.8698 44.8947 84.9219 44.5041 84.9844 44.0562C85.1302 43.2228 85.2344 42.5405 85.2969 42.0093C85.3698 41.478 85.4062 41.103 85.4062 40.8843C85.4062 40.8009 85.3958 40.7228 85.375 40.6499C85.3542 40.577 85.3177 40.5197 85.2656 40.478C85.1823 40.3843 85.0885 40.2697 84.9844 40.1343C85.0573 39.9259 85.1354 39.7645 85.2188 39.6499C85.4583 39.2853 85.6615 38.9832 85.8281 38.7437C85.9948 38.4937 86.1302 38.3166 86.2344 38.2124C86.401 38.0353 86.599 37.8634 86.8281 37.6968C87.0677 37.5197 87.349 37.3478 87.6719 37.1812ZM93.7031 50.2593C93.7031 50.4676 93.849 50.7489 94.1406 51.103C94.4427 51.4468 94.8906 51.8739 95.4844 52.3843C95.8698 52.7072 96.2656 53.0249 96.6719 53.3374C97.0885 53.6395 97.5 53.9468 97.9062 54.2593C98.0833 54.4051 98.3125 54.5978 98.5938 54.8374C98.875 55.0666 99.2031 55.3374 99.5781 55.6499C99.849 55.8582 100.13 56.0666 100.422 56.2749C100.724 56.4832 101.047 56.6916 101.391 56.8999C101.62 57.077 101.875 57.2697 102.156 57.478C102.438 57.6864 102.76 57.9103 103.125 58.1499C103.333 58.2749 103.495 58.5041 103.609 58.8374C103.724 59.1603 103.792 59.5822 103.812 60.103L103.672 60.5093L103.516 60.5874C103.411 60.5874 103.271 60.5405 103.094 60.4468C102.927 60.3634 102.714 60.2384 102.453 60.0718C102.401 60.0405 102.161 59.9259 101.734 59.728C101.318 59.5301 100.714 59.2489 99.9219 58.8843C99.4844 58.6968 99.0833 58.4884 98.7188 58.2593C98.3542 58.0197 98.0208 57.7697 97.7188 57.5093C97.5417 57.353 97.3125 57.1812 97.0312 56.9937C96.7604 56.8062 96.4375 56.603 96.0625 56.3843C95.6771 56.1655 95.3438 55.9572 95.0625 55.7593C94.7812 55.5614 94.5573 55.3947 94.3906 55.2593C93.8281 54.8009 93.3698 54.452 93.0156 54.2124C92.6615 53.9728 92.4167 53.853 92.2812 53.853C92.1771 53.9989 92.1198 54.1499 92.1094 54.3062C91.9844 54.7957 91.849 55.4155 91.7031 56.1655C91.5677 56.9051 91.4167 57.7697 91.25 58.7593C91.25 58.9364 91.2188 59.0666 91.1562 59.1499C91.0938 59.2437 91 59.2905 90.875 59.2905C90.4688 59.2905 90.1615 59.1916 89.9531 58.9937C89.7448 58.7957 89.6406 58.4989 89.6406 58.103C89.6406 57.5718 89.6719 57.0145 89.7344 56.4312C89.8073 55.8478 89.9219 55.2332 90.0781 54.5874C90.1302 54.3062 90.1667 54.0562 90.1875 53.8374C90.2188 53.6082 90.2344 53.3999 90.2344 53.2124C90.2344 52.7332 90.026 52.3218 89.6094 51.978C89.2031 51.6343 89 51.3895 89 51.2437C89 51.0145 89.0312 50.8166 89.0938 50.6499C89.1667 50.4728 89.2708 50.3322 89.4062 50.228C89.75 50.0093 90.0677 49.8009 90.3594 49.603C90.4323 49.5614 90.4792 49.4937 90.5 49.3999C90.5312 49.2957 90.5469 49.1551 90.5469 48.978C90.5469 48.8739 90.5469 48.7645 90.5469 48.6499C90.5469 48.5249 90.5469 48.4103 90.5469 48.3062C90.5781 47.3791 90.6042 46.4155 90.625 45.4155C90.625 45.3426 90.625 45.228 90.625 45.0718C90.625 44.9155 90.6146 44.7124 90.5938 44.4624C90.5729 44.2749 90.5677 44.103 90.5781 43.9468C90.5885 43.7801 90.5938 43.6291 90.5938 43.4937C90.5312 43.2853 90.474 43.1082 90.4219 42.9624C90.3802 42.8062 90.3594 42.6603 90.3594 42.5249C90.3594 42.3999 90.3698 42.2072 90.3906 41.9468C90.4115 41.6759 90.4219 41.4832 90.4219 41.3687C90.4219 41.2228 90.4062 41.0197 90.375 40.7593C90.3542 40.4989 90.3438 40.3009 90.3438 40.1655C90.3438 39.7905 90.4271 39.4312 90.5938 39.0874C90.7708 38.7437 91.0365 38.4051 91.3906 38.0718C91.7344 37.7801 92.0833 37.5614 92.4375 37.4155C92.8021 37.2593 93.1719 37.1812 93.5469 37.1812C93.724 37.1812 93.9844 37.1968 94.3281 37.228C94.6823 37.2489 94.9583 37.2593 95.1562 37.2593C95.2917 37.2593 95.6615 37.3739 96.2656 37.603C96.5052 37.6239 96.7188 37.6551 96.9062 37.6968C97.0938 37.728 97.2448 37.7645 97.3594 37.8062C97.6198 37.9312 97.8229 38.0301 97.9688 38.103C98.1146 38.1655 98.2188 38.202 98.2812 38.2124C98.4583 38.2749 98.6094 38.327 98.7344 38.3687C98.8698 38.4103 98.9792 38.4624 99.0625 38.5249C99.1979 38.5874 99.3542 38.6603 99.5312 38.7437C99.7188 38.827 99.9271 38.9207 100.156 39.0249C100.531 39.2124 100.88 39.4312 101.203 39.6812C101.536 39.9312 101.849 40.202 102.141 40.4937C102.474 40.8687 102.724 41.2384 102.891 41.603C103.057 41.9572 103.141 42.3114 103.141 42.6655C103.141 42.7697 103.13 42.9207 103.109 43.1187C103.099 43.3062 103.073 43.5197 103.031 43.7593C103 44.0614 102.844 44.3895 102.562 44.7437C102.281 45.0874 101.875 45.4676 101.344 45.8843C100.875 46.2489 100.438 46.5562 100.031 46.8062C99.625 47.0457 99.25 47.2176 98.9062 47.3218C98.7708 47.4155 98.6667 47.5041 98.5938 47.5874C98.4896 47.6916 98.2708 47.8374 97.9375 48.0249C97.6042 48.2124 97.151 48.4468 96.5781 48.728C95.5365 49.2384 94.7969 49.577 94.3594 49.7437C93.9219 49.8999 93.7031 50.0718 93.7031 50.2593ZM92.0625 42.728C92.2604 42.5822 92.4479 42.4416 92.625 42.3062C92.8021 42.1603 93.0312 42.0874 93.3125 42.0874C93.4375 42.0874 93.5885 42.228 93.7656 42.5093C93.9531 42.7801 94.0469 42.9832 94.0469 43.1187C94.0469 43.1916 94.0208 43.3582 93.9688 43.6187C93.9167 43.8791 93.8333 44.2332 93.7188 44.6812C93.4792 45.6916 93.3438 46.327 93.3125 46.5874C93.2812 46.8374 93.2135 47.2332 93.1094 47.7749C93.0677 47.9103 93.026 48.0874 92.9844 48.3062C92.9844 48.3999 93 48.4676 93.0312 48.5093C93.0729 48.5509 93.125 48.5718 93.1875 48.5718C95.2604 47.5301 96.3333 46.9884 96.4062 46.9468C96.4896 46.9259 96.5781 46.8999 96.6719 46.8687C96.7656 46.827 96.8542 46.7853 96.9375 46.7437L97.1719 46.4468C97.776 46.0614 98.401 45.6499 99.0469 45.2124C99.4531 44.8999 99.7552 44.5926 99.9531 44.2905C100.151 43.9884 100.25 43.6864 100.25 43.3843C100.25 42.9989 100.026 42.6187 99.5781 42.2437C99.1302 41.8687 98.4583 41.5093 97.5625 41.1655C96.8021 40.8634 96.1094 40.6447 95.4844 40.5093C94.8594 40.3634 94.2917 40.2905 93.7812 40.2905C93.1146 40.2905 92.6094 40.4103 92.2656 40.6499C91.9323 40.8791 91.7656 41.2228 91.7656 41.6812C91.7656 42.0353 91.7917 42.3062 91.8438 42.4937C91.8958 42.6707 91.9688 42.7489 92.0625 42.728ZM108.484 50.2593C108.484 50.4676 108.63 50.7489 108.922 51.103C109.224 51.4468 109.672 51.8739 110.266 52.3843C110.651 52.7072 111.047 53.0249 111.453 53.3374C111.87 53.6395 112.281 53.9468 112.688 54.2593C112.865 54.4051 113.094 54.5978 113.375 54.8374C113.656 55.0666 113.984 55.3374 114.359 55.6499C114.63 55.8582 114.911 56.0666 115.203 56.2749C115.505 56.4832 115.828 56.6916 116.172 56.8999C116.401 57.077 116.656 57.2697 116.938 57.478C117.219 57.6864 117.542 57.9103 117.906 58.1499C118.115 58.2749 118.276 58.5041 118.391 58.8374C118.505 59.1603 118.573 59.5822 118.594 60.103L118.453 60.5093L118.297 60.5874C118.193 60.5874 118.052 60.5405 117.875 60.4468C117.708 60.3634 117.495 60.2384 117.234 60.0718C117.182 60.0405 116.943 59.9259 116.516 59.728C116.099 59.5301 115.495 59.2489 114.703 58.8843C114.266 58.6968 113.865 58.4884 113.5 58.2593C113.135 58.0197 112.802 57.7697 112.5 57.5093C112.323 57.353 112.094 57.1812 111.812 56.9937C111.542 56.8062 111.219 56.603 110.844 56.3843C110.458 56.1655 110.125 55.9572 109.844 55.7593C109.562 55.5614 109.339 55.3947 109.172 55.2593C108.609 54.8009 108.151 54.452 107.797 54.2124C107.443 53.9728 107.198 53.853 107.062 53.853C106.958 53.9989 106.901 54.1499 106.891 54.3062C106.766 54.7957 106.63 55.4155 106.484 56.1655C106.349 56.9051 106.198 57.7697 106.031 58.7593C106.031 58.9364 106 59.0666 105.938 59.1499C105.875 59.2437 105.781 59.2905 105.656 59.2905C105.25 59.2905 104.943 59.1916 104.734 58.9937C104.526 58.7957 104.422 58.4989 104.422 58.103C104.422 57.5718 104.453 57.0145 104.516 56.4312C104.589 55.8478 104.703 55.2332 104.859 54.5874C104.911 54.3062 104.948 54.0562 104.969 53.8374C105 53.6082 105.016 53.3999 105.016 53.2124C105.016 52.7332 104.807 52.3218 104.391 51.978C103.984 51.6343 103.781 51.3895 103.781 51.2437C103.781 51.0145 103.812 50.8166 103.875 50.6499C103.948 50.4728 104.052 50.3322 104.188 50.228C104.531 50.0093 104.849 49.8009 105.141 49.603C105.214 49.5614 105.26 49.4937 105.281 49.3999C105.312 49.2957 105.328 49.1551 105.328 48.978C105.328 48.8739 105.328 48.7645 105.328 48.6499C105.328 48.5249 105.328 48.4103 105.328 48.3062C105.359 47.3791 105.385 46.4155 105.406 45.4155C105.406 45.3426 105.406 45.228 105.406 45.0718C105.406 44.9155 105.396 44.7124 105.375 44.4624C105.354 44.2749 105.349 44.103 105.359 43.9468C105.37 43.7801 105.375 43.6291 105.375 43.4937C105.312 43.2853 105.255 43.1082 105.203 42.9624C105.161 42.8062 105.141 42.6603 105.141 42.5249C105.141 42.3999 105.151 42.2072 105.172 41.9468C105.193 41.6759 105.203 41.4832 105.203 41.3687C105.203 41.2228 105.188 41.0197 105.156 40.7593C105.135 40.4989 105.125 40.3009 105.125 40.1655C105.125 39.7905 105.208 39.4312 105.375 39.0874C105.552 38.7437 105.818 38.4051 106.172 38.0718C106.516 37.7801 106.865 37.5614 107.219 37.4155C107.583 37.2593 107.953 37.1812 108.328 37.1812C108.505 37.1812 108.766 37.1968 109.109 37.228C109.464 37.2489 109.74 37.2593 109.938 37.2593C110.073 37.2593 110.443 37.3739 111.047 37.603C111.286 37.6239 111.5 37.6551 111.688 37.6968C111.875 37.728 112.026 37.7645 112.141 37.8062C112.401 37.9312 112.604 38.0301 112.75 38.103C112.896 38.1655 113 38.202 113.062 38.2124C113.24 38.2749 113.391 38.327 113.516 38.3687C113.651 38.4103 113.76 38.4624 113.844 38.5249C113.979 38.5874 114.135 38.6603 114.312 38.7437C114.5 38.827 114.708 38.9207 114.938 39.0249C115.312 39.2124 115.661 39.4312 115.984 39.6812C116.318 39.9312 116.63 40.202 116.922 40.4937C117.255 40.8687 117.505 41.2384 117.672 41.603C117.839 41.9572 117.922 42.3114 117.922 42.6655C117.922 42.7697 117.911 42.9207 117.891 43.1187C117.88 43.3062 117.854 43.5197 117.812 43.7593C117.781 44.0614 117.625 44.3895 117.344 44.7437C117.062 45.0874 116.656 45.4676 116.125 45.8843C115.656 46.2489 115.219 46.5562 114.812 46.8062C114.406 47.0457 114.031 47.2176 113.688 47.3218C113.552 47.4155 113.448 47.5041 113.375 47.5874C113.271 47.6916 113.052 47.8374 112.719 48.0249C112.385 48.2124 111.932 48.4468 111.359 48.728C110.318 49.2384 109.578 49.577 109.141 49.7437C108.703 49.8999 108.484 50.0718 108.484 50.2593ZM106.844 42.728C107.042 42.5822 107.229 42.4416 107.406 42.3062C107.583 42.1603 107.812 42.0874 108.094 42.0874C108.219 42.0874 108.37 42.228 108.547 42.5093C108.734 42.7801 108.828 42.9832 108.828 43.1187C108.828 43.1916 108.802 43.3582 108.75 43.6187C108.698 43.8791 108.615 44.2332 108.5 44.6812C108.26 45.6916 108.125 46.327 108.094 46.5874C108.062 46.8374 107.995 47.2332 107.891 47.7749C107.849 47.9103 107.807 48.0874 107.766 48.3062C107.766 48.3999 107.781 48.4676 107.812 48.5093C107.854 48.5509 107.906 48.5718 107.969 48.5718C110.042 47.5301 111.115 46.9884 111.188 46.9468C111.271 46.9259 111.359 46.8999 111.453 46.8687C111.547 46.827 111.635 46.7853 111.719 46.7437L111.953 46.4468C112.557 46.0614 113.182 45.6499 113.828 45.2124C114.234 44.8999 114.536 44.5926 114.734 44.2905C114.932 43.9884 115.031 43.6864 115.031 43.3843C115.031 42.9989 114.807 42.6187 114.359 42.2437C113.911 41.8687 113.24 41.5093 112.344 41.1655C111.583 40.8634 110.891 40.6447 110.266 40.5093C109.641 40.3634 109.073 40.2905 108.562 40.2905C107.896 40.2905 107.391 40.4103 107.047 40.6499C106.714 40.8791 106.547 41.2228 106.547 41.6812C106.547 42.0353 106.573 42.3062 106.625 42.4937C106.677 42.6707 106.75 42.7489 106.844 42.728Z" fill="#E31C5F"/>
<defs>
<clipPath id="clip0_179_200">
<rect width="67.0248" height="67.0248" fill="white" transform="matrix(-1 0 0 1 67.0247 0)"/>
</clipPath>
</defs>
</svg>
