<svg width="66" height="67" viewBox="0 0 66 67" fill="none" xmlns="http://www.w3.org/2000/svg">
<rect width="66" height="67" fill="#1E1E1E"/>
<g id="Footer">
<rect width="1440" height="1024" transform="translate(-1314 -745)" fill="#0A0F13"/>
<g id="Frame 71">
<rect x="-476" width="542" height="67" rx="4" stroke="#707070"/>
<g id="mingcute:send-line" clip-path="url(#clip0_1_2)">
<rect width="66" height="67" fill="#E31C5F"/>
<g id="Group">
<path id="Vector" fill-rule="evenodd" clip-rule="evenodd" d="M49.4752 16.7778L14.8472 29.4883L26.3835 36.2664L36.5557 25.9373C37.0718 25.4138 37.7715 25.1199 38.501 25.1202C39.2305 25.1204 39.93 25.4148 40.4456 25.9387C40.9613 26.4625 41.2508 27.1728 41.2505 27.9134C41.2503 28.6539 40.9603 29.364 40.4442 29.8875L30.2692 40.2167L36.9517 51.9249L49.4752 16.7778ZM50.3635 10.5133C53.6497 9.30453 56.8342 12.5373 55.6435 15.8733L41.118 56.6456C39.9245 59.99 35.4255 60.3976 33.6682 57.3184L24.8215 41.8023L9.53699 32.8215C6.50374 31.0377 6.90249 26.4705 10.1997 25.2589L50.3635 10.5133Z" fill="white"/>
</g>
</g>
</g>
</g>
<defs>
<clipPath id="clip0_1_2">
<rect width="66" height="67" fill="white"/>
</clipPath>
</defs>
</svg>
