<svg width="164" height="149" viewBox="0 0 164 149" fill="none" xmlns="http://www.w3.org/2000/svg">
<g clip-path="url(#clip0_179_141)">
<path d="M93.125 27.9375C93.125 35.347 96.0684 42.453 101.308 47.6923C106.547 52.9316 113.653 55.875 121.062 55.875C128.472 55.875 135.578 52.9316 140.817 47.6923C146.057 42.453 149 35.347 149 27.9375C149 20.528 146.057 13.422 140.817 8.1827C135.578 2.94341 128.472 0 121.062 0C113.653 0 106.547 2.94341 101.308 8.1827C96.0684 13.422 93.125 20.528 93.125 27.9375ZM139.688 27.9375C139.688 32.8772 137.725 37.6145 134.232 41.1074C130.739 44.6002 126.002 46.5625 121.062 46.5625C116.123 46.5625 111.386 44.6002 107.893 41.1074C104.4 37.6145 102.438 32.8772 102.438 27.9375C102.438 22.9978 104.4 18.2605 107.893 14.7676C111.386 11.2748 116.123 9.3125 121.062 9.3125C126.002 9.3125 130.739 11.2748 134.232 14.7676C137.725 18.2605 139.688 22.9978 139.688 27.9375Z" fill="#E31C5F"/>
<path d="M65.1875 55.875H60.5312C56.0138 55.8745 51.6502 57.5158 48.2529 60.4933C44.8556 63.4709 42.6563 67.5816 42.0646 72.0601L13.1027 59.1902C11.6851 58.5586 10.1321 58.2913 8.58485 58.4125C7.03763 58.5338 5.54524 59.0398 4.24335 59.8846C2.94146 60.7294 1.87133 61.8862 1.13026 63.2498C0.389189 64.6134 0.000664425 66.1406 0 67.6926V137.182C0.00135367 138.733 0.389953 140.259 1.13053 141.622C1.8711 142.984 2.94021 144.14 4.24081 144.985C5.54141 145.829 7.03234 146.336 8.57826 146.458C10.1242 146.58 11.6762 146.314 13.0934 145.685L42.0646 132.815C42.6563 137.293 44.8556 141.404 48.2529 144.382C51.6502 147.359 56.0138 149.001 60.5312 149H130.375C135.315 149 140.052 147.038 143.545 143.545C147.038 140.052 149 135.315 149 130.375V74.5C149 69.5603 147.038 64.823 143.545 61.3301C140.052 57.8373 135.315 55.875 130.375 55.875H65.1875ZM9.3125 137.173V67.7019L41.9062 82.1828V122.692L9.3125 137.182V137.173ZM139.688 74.5V130.375C139.688 132.845 138.706 135.213 136.96 136.96C135.213 138.706 132.845 139.688 130.375 139.688H60.5312C58.0614 139.688 55.6928 138.706 53.9463 136.96C52.1999 135.213 51.2188 132.845 51.2188 130.375V74.5C51.2188 72.0302 52.1999 69.6615 53.9463 67.9151C55.6928 66.1686 58.0614 65.1875 60.5312 65.1875H130.375C132.845 65.1875 135.213 66.1686 136.96 67.9151C138.706 69.6615 139.688 72.0302 139.688 74.5Z" fill="#E31C5F"/>
<path d="M65.1875 55.875C57.778 55.875 50.672 52.9316 45.4327 47.6923C40.1934 42.453 37.25 35.347 37.25 27.9375C37.25 20.528 40.1934 13.422 45.4327 8.1827C50.672 2.94341 57.778 0 65.1875 0C72.597 0 79.703 2.94341 84.9423 8.1827C90.1816 13.422 93.125 20.528 93.125 27.9375C93.125 35.347 90.1816 42.453 84.9423 47.6923C79.703 52.9316 72.597 55.875 65.1875 55.875ZM83.8125 27.9375C83.8125 22.9978 81.8502 18.2605 78.3574 14.7676C74.8645 11.2748 70.1272 9.3125 65.1875 9.3125C60.2478 9.3125 55.5105 11.2748 52.0176 14.7676C48.5248 18.2605 46.5625 22.9978 46.5625 27.9375C46.5625 32.8772 48.5248 37.6145 52.0176 41.1074C55.5105 44.6002 60.2478 46.5625 65.1875 46.5625C70.1272 46.5625 74.8645 44.6002 78.3574 41.1074C81.8502 37.6145 83.8125 32.8772 83.8125 27.9375Z" fill="#E31C5F"/>
<path d="M89.6817 106.742H94.3771C95.0423 106.742 95.6002 106.516 96.051 106.065C96.5017 105.615 96.7263 105.058 96.7248 104.394C96.7248 103.729 96.4994 103.171 96.0486 102.72C95.5979 102.269 95.0407 102.045 94.3771 102.046H89.6817C89.0165 102.046 88.4586 102.272 88.0078 102.722C87.557 103.173 87.3325 103.73 87.334 104.394C87.334 105.059 87.5594 105.617 88.0102 106.068C88.4609 106.519 89.0181 106.743 89.6817 106.742ZM89.6817 99.6985H103.768C104.433 99.6985 104.991 99.4732 105.442 99.0224C105.892 98.5716 106.117 98.0145 106.116 97.3508C106.116 96.6857 105.89 96.1277 105.439 95.6769C104.989 95.2262 104.431 95.0016 103.768 95.0032H89.6817C89.0165 95.0032 88.4586 95.2285 88.0078 95.6793C87.557 96.13 87.3325 96.6872 87.334 97.3508C87.334 98.016 87.5594 98.574 88.0102 99.0247C88.4609 99.4755 89.0181 99.7001 89.6817 99.6985ZM89.6817 92.6555H103.768C104.433 92.6555 104.991 92.4301 105.442 91.9793C105.892 91.5286 106.117 90.9714 106.116 90.3078C106.116 89.6426 105.89 89.0846 105.439 88.6339C104.989 88.1831 104.431 87.9585 103.768 87.9601H89.6817C89.0165 87.9601 88.4586 88.1855 88.0078 88.6362C87.557 89.087 87.3325 89.6442 87.334 90.3078C87.334 90.973 87.5594 91.5309 88.0102 91.9817C88.4609 92.4324 89.0181 92.657 89.6817 92.6555ZM82.6386 116.132C81.3474 116.132 80.2417 115.672 79.3214 114.752C78.4011 113.832 77.9417 112.727 77.9433 111.437V83.2647C77.9433 81.9735 78.4034 80.8677 79.3237 79.9474C80.244 79.0271 81.349 78.5678 82.6386 78.5693H110.811C112.102 78.5693 113.208 79.0295 114.128 79.9498C115.048 80.8701 115.508 81.9751 115.506 83.2647V111.437C115.506 112.728 115.046 113.834 114.126 114.754C113.206 115.675 112.101 116.134 110.811 116.132H82.6386ZM82.6386 111.437H110.811V83.2647H82.6386V111.437ZM73.2479 125.523C71.9567 125.523 70.8509 125.063 69.9306 124.143C69.0103 123.222 68.5509 122.117 68.5525 120.828V90.3078C68.5525 89.6426 68.7779 89.0846 69.2286 88.6339C69.6794 88.1831 70.2366 87.9585 70.9002 87.9601C71.5654 87.9601 72.1233 88.1855 72.5741 88.6362C73.0249 89.087 73.2495 89.6442 73.2479 90.3078V120.828H103.768C104.433 120.828 104.991 121.053 105.442 121.504C105.892 121.955 106.117 122.512 106.116 123.175C106.116 123.841 105.89 124.399 105.439 124.849C104.989 125.3 104.431 125.525 103.768 125.523H73.2479Z" fill="#E31C5F"/>
</g>
<path d="M143.366 45.7017C143.366 45.7017 160.06 54.362 160.06 68.1873C160.06 82.0126 149 87.5427 149 87.5427" stroke="#E31C5F" stroke-width="6" stroke-linecap="round" stroke-linejoin="round"/>
<defs>
<clipPath id="clip0_179_141">
<rect width="149" height="149" fill="white" transform="matrix(-1 0 0 1 149 0)"/>
</clipPath>
</defs>
</svg>
